<?xml version="1.0" encoding="utf-8"?>
<!-- Svg Vector Icons : http://www.onlinewebfonts.com/icon -->
<!DOCTYPE svg PUBLIC "-//W3C//DTD SVG 1.1//EN" "http://www.w3.org/Graphics/SVG/1.1/DTD/svg11.dtd">
<svg version="1.1" xmlns="http://www.w3.org/2000/svg" xmlns:xlink="http://www.w3.org/1999/xlink" x="0px" y="0px" viewBox="0 0 1000 1000" enable-background="new 0 0 1000 1000" xml:space="preserve">
<metadata> Svg Vector Icons : http://www.onlinewebfonts.com/icon </metadata>
<g><g transform="translate(0.000000,511.000000) scale(0.100000,-0.100000)"><path d="M779.5,4842.2c-322-86.9-565-329.9-649.9-651.9c-39.5-146.2-39.5-8012.2,0-8158.4C216.5-4294,457.5-4535,787.4-4620c171.9-45.4,8255.2-45.4,8427.1,0c329.9,84.9,570.9,325.9,657.8,651.9c21.7,81,27.7,817.8,27.7,4079.2c0,3261.4-5.9,3998.2-27.7,4079.2c-86.9,325.9-327.9,566.9-657.8,651.9C9048.6,4885.7,939.5,4883.7,779.5,4842.2z M9262,4520.2c134.3-71.1,225.2-164,286.4-290.4l55.3-118.5V2764.1V1414.9H5001H398.3v1349.2v1347.2l47.4,98.8c79,171.9,191.6,276.6,365.4,337.8c57.3,21.7,861.3,25.7,4219.5,21.7l4148.4-4L9262,4520.2z M9603.7-1376.4V-3893l-59.3-120.5c-65.2-128.4-150.1-215.3-282.5-284.5l-83-45.4H5001H823l-83,45.4c-132.3,69.1-217.3,156.1-282.5,284.5L398.3-3893v2516.7v2514.7H5001h4602.7V-1376.4z"/><path d="M5617.3,3427.8c-290.4-57.3-486-288.4-486-582.7c-2-351.6,278.5-620.3,628.2-596.6c430.7,27.7,685.5,468.2,495.8,857.3C6140.8,3338.9,5866.2,3477.2,5617.3,3427.8z M5889.9,3096c246.9-179.8,136.3-555.1-163.9-555.1c-225.2,0-369.4,215.3-282.5,420.8c33.6,79,106.7,148.2,181.7,171.9C5702.3,3157.2,5830.7,3139.4,5889.9,3096z"/><path d="M8355.2,3427.8c-114.6-17.8-278.5-104.7-345.7-185.7c-29.6-31.6-73.1-106.7-100.7-165.9c-41.5-90.9-47.4-126.4-39.5-266.7c5.9-132.4,17.8-181.7,61.2-252.9c124.5-213.3,337.8-325.9,576.8-308.2c296.3,25.7,517.6,250.9,539.3,551.1c11.9,179.8-31.6,304.2-156.1,440.5C8746.3,3398.2,8566.6,3461.4,8355.2,3427.8z M8588.3,3111.8c213.4-102.7,227.2-405,23.7-533.4c-51.3-31.6-88.9-37.5-179.7-31.6c-96.8,5.9-122.5,15.8-181.8,73.1c-118.5,114.6-136.3,248.9-49.4,391.1c41.5,69.1,171.9,140.3,254.8,142.2C8483.6,3153.2,8542.9,3135.5,8588.3,3111.8z"/><path d="M6816.4,3364.6c-436.6-225.2-424.7-845.5,19.7-1064.8c73.1-37.5,124.5-45.4,258.8-45.4c150.1,0,179.7,5.9,274.6,59.3c363.5,201.5,424.7,689.4,120.5,966c-126.4,112.6-221.3,150.1-399,150.1C6958.6,3429.8,6925,3421.9,6816.4,3364.6z M7251,3097.9c187.7-138.3,187.7-403-2-517.6c-90.9-55.3-241-53.3-325.9,5.9c-71.1,47.4-144.2,175.8-144.2,252.9c0,27.6,19.8,88.9,45.4,136.3C6905.3,3137.4,7116.6,3198.7,7251,3097.9z"/><path d="M1218.1,3342.9c-81-37.5-148.2-102.7-179.8-181.7c-33.6-81-37.5-549.2-5.9-634.1c29.6-79,94.8-144.2,185.7-185.7c75.1-33.6,154.1-37.5,1284-37.5c1126,0,1210.9,4,1284,37.5c88.9,39.5,181.7,136.3,199.5,207.4c5.9,25.7,7.9,173.8,3.9,329.9c-5.9,260.7-9.9,290.4-51.4,349.6c-25.7,35.6-81,81-122.5,102.7c-75.1,37.5-120.5,39.5-1307.7,39.5C1520.3,3368.6,1265.5,3364.6,1218.1,3342.9z M3685.4,3062.4c41.5-41.5,45.4-406.9,4-440.5c-17.8-15.8-349.7-19.8-1199.1-17.8l-1173.4,5.9l-5.9,225.2c-4,167.9,2,231.1,19.8,243c13.8,7.9,543.2,15.8,1175.4,15.8C3523.4,3094,3657.7,3090,3685.4,3062.4z"/><path d="M5678.6,472.6c-15.8-41.5-420.8-999.6-898.8-2129.5c-480-1129.9-875.1-2070.2-881-2088c-7.9-31.6,7.9-35.6,148.2-35.6c152.1,0,158,2,181.7,55.3c61.2,130.4,1799.6,4249.1,1799.6,4259c0,5.9-71.1,11.8-160,11.8h-158L5678.6,472.6z"/><path d="M2452.7-754.1L1395.9-1404l-5.9-128.4l-5.9-126.4l835.6-511.6c458.3-282.5,938.3-578.8,1066.7-655.8l233.1-144.2v183.7v183.7l-869.2,531.4c-478.1,292.4-869.2,535.3-869.2,543.2c0,5.9,387.2,245,861.3,531.4c474.1,288.4,865.2,533.4,869.2,545.2c5.9,11.9,7.9,96.8,3.9,185.7l-5.9,162L2452.7-754.1z"/><path d="M6486.5-287.9l5.9-183.7l859.3-525.4c472.1-288.4,859.3-533.4,857.3-543.2c0-9.9-389.2-252.8-863.3-539.3l-863.3-523.5v-183.7v-183.7l233.1,144.2c128.4,77,608.4,373.4,1066.7,655.8l835.6,513.6l-5.9,126.4l-5.9,126.4L7551.2-754.1c-578.8,355.6-1056.8,647.9-1062.8,647.9C6484.5-106.2,6484.5-189.2,6486.5-287.9z"/></g></g>
</svg>